<svg width="16" height="16" viewBox="0 0 16 16" fill="none" xmlns="http://www.w3.org/2000/svg">
<path d="M14.4697 13.7588L14.4746 13.7568C14.4746 13.7568 10.9912 10.2217 10.6494 9.87989C10.4375 9.8174 9.19825 9.27246 9.17678 8.24804C9.70558 7.64212 10.4746 7.06007 11.6103 7.04859C11.6123 7.04763 11.6182 7.04712 11.6211 7.04712C12.1348 7.06103 12.6533 6.89062 13.0659 6.53004C13.0947 6.50466 13.1626 6.43557 13.1626 6.43557L16 2.85966L15.6592 2.51761L12.188 6.19266L11.7784 5.78178L15.3511 2.20927L15.0508 1.91068L11.457 5.50516L11.1172 5.16505L14.7114 1.57057L14.3809 1.24071L10.7866 4.83473L10.3838 4.43263L14.0938 0.95216L13.7822 0.640625L10.3633 3.3042C10.3633 3.3042 10.2393 3.40868 10.1963 3.45217C9.72706 3.92118 9.52538 4.55766 9.59279 5.17068C9.54542 5.94828 9.29399 6.52567 8.96783 6.96463C2.59398 0.729005 0.190418 1.39599 0.190418 1.39599L0 1.5891C0 1.5891 4.28589 5.88671 6.93408 8.54004C6.0049 9.47023 1.5254 13.9497 1.5254 13.9497L1.52586 13.9507C1.52195 13.9546 1.51708 13.956 1.51246 13.9609C1.19239 14.2812 1.19361 14.7998 1.51296 15.1196C1.83252 15.4394 2.35259 15.4394 2.67139 15.1206C2.67652 15.1157 2.67799 15.1103 2.68093 15.1074L2.6819 15.1083C2.6819 15.1083 7.16703 10.6245 8.09084 9.70112C8.57518 10.186 8.89844 10.5097 8.96194 10.5732C9.3545 10.9678 13.3067 14.9199 13.3067 14.9199H13.3115C13.3115 14.9248 13.3159 14.9292 13.3203 14.9312C13.6397 15.2529 14.1641 15.2529 14.4829 14.9312C14.8066 14.6123 14.8066 14.0898 14.4829 13.7686C14.479 13.7636 14.4746 13.7617 14.4697 13.7588Z" fill="white"/>
</svg>
