<svg width="85" height="48" viewBox="0 0 85 48" fill="none" xmlns="http://www.w3.org/2000/svg">
<g id="Group 427319248">
<rect id="Rectangle 14" x="0.5" y="0.5" width="83.1429" height="47" rx="10.5" stroke="#C0CCDA"/>
<g id="Group 427319247">
<g id="Group 31524">
<path id="Vector" d="M17.7778 15C17.0411 15 16.3345 15.2972 15.8136 15.8261C15.2927 16.3551 15 17.0725 15 17.8205V30.5128C15 31.2609 15.2927 31.9783 15.8136 32.5072C16.3345 33.0362 17.0411 33.3333 17.7778 33.3333H23.3333V15H17.7778Z" fill="#009A49"/>
<path id="Vector_2" d="M23.3335 15H31.6668V33.3333H23.3335V15Z" fill="#EEEEEE"/>
<path id="Vector_3" d="M37.2223 15H31.6667V33.3333H37.2223C37.959 33.3333 38.6656 33.0362 39.1865 32.5072C39.7074 31.9783 40.0001 31.2609 40.0001 30.5128V17.8205C40.0001 17.0725 39.7074 16.3551 39.1865 15.8261C38.6656 15.2972 37.959 15 37.2223 15Z" fill="#009A49"/>
</g>
<g id="Group">
<g id="Group_2">
<path id="Vector_4" d="M62.0025 24.9798L57.5132 20.1171C57.3899 19.9832 57.225 19.9095 57.0492 19.9095C56.8733 19.9095 56.7085 19.9832 56.585 20.1171L56.1918 20.5432C56.0681 20.6769 56 20.8556 56 21.046C56 21.2364 56.0681 21.4149 56.1918 21.5487L61.5368 27.3386C61.6607 27.4729 61.8262 27.5464 62.0022 27.5459C62.179 27.5464 62.3444 27.473 62.4684 27.3386L67.8082 21.5541C67.9319 21.4203 68 21.2418 68 21.0513C68 20.8609 67.9319 20.6824 67.8082 20.5485L67.415 20.1225C67.1591 19.8453 66.7425 19.8453 66.4867 20.1225L62.0025 24.9798Z" fill="#E0E0E0"/>
</g>
</g>
</g>
</g>
</svg>
