<svg width="30" height="31" viewBox="0 0 30 31" fill="none" xmlns="http://www.w3.org/2000/svg">
<g clip-path="url(#clip0_6_7)">
<path d="M27.1307 26.2975L27.1399 26.2938C27.1399 26.2938 20.6085 19.6654 19.9676 19.0246C19.5703 18.9074 17.2467 17.8856 17.2065 15.9648C18.198 14.8287 19.6399 13.7374 21.7694 13.7159C21.773 13.7141 21.7841 13.7131 21.7896 13.7131C22.7527 13.7392 23.725 13.4197 24.4986 12.7436C24.5526 12.696 24.6799 12.5664 24.6799 12.5664L30.0001 5.86161L29.361 5.22028L22.8526 12.111L22.0844 11.3406L28.7834 4.64214L28.2203 4.08228L21.482 10.8219L20.8447 10.1842L27.5839 3.44457L26.9642 2.82608L20.225 9.56488L19.4696 8.81094L26.4258 2.28506L25.8417 1.70093L19.4312 6.69514C19.4312 6.69514 19.1987 6.89103 19.1181 6.97258C18.2382 7.85197 17.8601 9.04536 17.9865 10.1948C17.8977 11.6528 17.4262 12.7354 16.8147 13.5584C4.86372 1.86664 0.357033 3.11724 0.357033 3.11724L0 3.47932C0 3.47932 8.03604 11.5373 13.0014 16.5123C11.2592 18.2564 2.86013 26.6555 2.86013 26.6555L2.86099 26.6573C2.85366 26.6646 2.84452 26.6673 2.83586 26.6765C2.23573 27.2771 2.23802 28.2493 2.8368 28.849C3.43598 29.4487 4.4111 29.4486 5.00886 28.8508C5.01848 28.8417 5.02124 28.8316 5.02675 28.8261L5.02856 28.8279C5.02856 28.8279 13.4382 20.4207 15.1703 18.6894C16.0785 19.5985 16.6846 20.2055 16.8036 20.3245C17.5397 21.0643 24.95 28.4746 24.95 28.4746H24.9591C24.9591 28.4837 24.9673 28.492 24.9756 28.4957C25.5744 29.0989 26.5576 29.0989 27.1555 28.4957C27.7625 27.8978 27.7625 26.9181 27.1555 26.3158C27.1481 26.3066 27.1399 26.303 27.1307 26.2975Z" fill="white"/>
</g>
<defs>
<clipPath id="clip0_6_7">
<rect width="30" height="30" fill="white" transform="translate(0 0.5)"/>
</clipPath>
</defs>
</svg>
