<svg width="30" height="30" viewBox="0 0 30 30" fill="none" xmlns="http://www.w3.org/2000/svg">
<g id="instagram-svgrepo-com 2">
<path id="Vector" fill-rule="evenodd" clip-rule="evenodd" d="M18.6 6.59998H11.4C8.74904 6.59998 6.60001 8.74901 6.60001 11.4V18.6C6.60001 21.2509 8.74904 23.4 11.4 23.4H18.6C21.2509 23.4 23.4 21.2509 23.4 18.6V11.4C23.4 8.74901 21.2509 6.59998 18.6 6.59998Z" stroke="#E0E0E0" stroke-width="1.2" stroke-linecap="round" stroke-linejoin="round"/>
<path id="Vector_2" fill-rule="evenodd" clip-rule="evenodd" d="M15 18.6C13.0117 18.6 11.4 16.9883 11.4 15C11.4 13.0117 13.0117 11.4 15 11.4C16.9883 11.4 18.6 13.0117 18.6 15C18.6 15.9547 18.2207 16.8705 17.5456 17.5456C16.8704 18.2207 15.9547 18.6 15 18.6Z" stroke="#E0E0E0" stroke-width="1.2" stroke-linecap="round" stroke-linejoin="round"/>
<path id="Vector_3" d="M19.8 9.00002C19.1373 9.00002 18.6 9.53728 18.6 10.2C18.6 10.8628 19.1373 11.4 19.8 11.4C20.4627 11.4 21 10.8628 21 10.2C21 9.53728 20.4627 9.00002 19.8 9.00002Z" fill="#E0E0E0"/>
<path id="Vector_4" d="M19.8 9.60005C19.4686 9.60005 19.2 9.86868 19.2 10.2C19.2 10.5314 19.4686 10.8 19.8 10.8C20.1314 10.8 20.4 10.5314 20.4 10.2C20.4 9.86868 20.1314 9.60005 19.8 9.60005Z" stroke="#E0E0E0" stroke-width="0.8" stroke-linecap="round"/>
</g>
</svg>
