<svg width="70" height="63" viewBox="0 0 70 63" fill="none" xmlns="http://www.w3.org/2000/svg">
<g clip-path="url(#clip0_51_79)">
<path d="M14.8917 49.5975C12.3749 47.3325 14.0442 42.5771 12.7632 39.7907C11.4353 36.9022 6.5625 34.5774 6.5625 31.4999C6.5625 28.4225 11.4353 26.0977 12.7632 23.2093C14.0442 20.4229 12.3749 15.6675 14.8917 13.4025C17.4084 11.1374 22.6921 12.6398 25.7881 11.4869C28.9976 10.2917 31.5807 5.90625 35.0001 5.90625C38.4195 5.90625 41.0025 10.2918 44.2119 11.4869C47.3079 12.6398 52.5916 11.1374 55.1083 13.4025C57.6251 15.6675 55.9558 20.4229 57.2368 23.2093C58.5647 26.0978 63.4375 28.4226 63.4375 31.5001C63.4375 34.5775 58.5647 36.9022 57.2368 39.7907C55.9558 42.5771 57.6251 47.3325 55.1083 49.5975C52.5916 51.8626 47.3079 50.3602 44.2119 51.5131C41.0024 52.7083 38.4193 57.0937 34.9999 57.0937C31.5805 57.0937 28.9975 52.7082 25.7881 51.5131C22.6921 50.3602 17.4084 51.8626 14.8917 49.5975Z" stroke="white" stroke-width="3.95833" stroke-linecap="round" stroke-linejoin="round"/>
<path d="M47.0312 25.5938L30.9895 39.375L22.9688 32.4844" stroke="white" stroke-width="3.95833" stroke-linecap="round" stroke-linejoin="round"/>
</g>
<defs>
<clipPath id="clip0_51_79">
<rect width="70" height="63" fill="white"/>
</clipPath>
</defs>
</svg>
