<svg width="70" height="70" viewBox="0 0 70 70" fill="none" xmlns="http://www.w3.org/2000/svg">
<g clip-path="url(#clip0_51_96)">
<path d="M8.75 28.4377H21.875V56.8752H8.75C8.16984 56.8752 7.61344 56.6448 7.2032 56.2345C6.79297 55.8243 6.5625 55.2679 6.5625 54.6877V30.6252C6.5625 30.0451 6.79297 29.4887 7.2032 29.0784C7.61344 28.6682 8.16984 28.4377 8.75 28.4377V28.4377Z" stroke="white" stroke-width="3.11719" stroke-linecap="round" stroke-linejoin="round"/>
<path d="M21.875 28.4377L32.8125 6.56274C35.1331 6.56274 37.3587 7.48462 38.9997 9.12556C40.6406 10.7665 41.5625 12.9921 41.5625 15.3127V21.8752H58.4883C59.1086 21.8737 59.7221 22.005 60.2875 22.2601C60.853 22.5153 61.3572 22.8886 61.7665 23.3548C62.1757 23.821 62.4804 24.3694 62.6602 24.9631C62.8399 25.5569 62.8905 26.1822 62.8086 26.7971L59.5273 53.0471C59.3946 54.1009 58.883 55.0704 58.0881 55.7748C57.2932 56.4792 56.2691 56.8703 55.207 56.8752H21.875" stroke="white" stroke-width="3.11719" stroke-linecap="round" stroke-linejoin="round"/>
</g>
<defs>
<clipPath id="clip0_51_96">
<rect width="70" height="70" fill="white"/>
</clipPath>
</defs>
</svg>
