<svg width="70" height="63" viewBox="0 0 70 63" fill="none" xmlns="http://www.w3.org/2000/svg">
<path d="M35 55.1252C49.4975 55.1252 61.25 44.548 61.25 31.5002C61.25 18.4525 49.4975 7.87524 35 7.87524C20.5025 7.87524 8.75 18.4525 8.75 31.5002C8.75 44.548 20.5025 55.1252 35 55.1252Z" stroke="white" stroke-width="3.16667" stroke-linecap="round" stroke-linejoin="round"/>
<path d="M35 39.3752C41.0406 39.3752 45.9375 34.968 45.9375 29.5315C45.9375 24.0949 41.0406 19.6877 35 19.6877C28.9594 19.6877 24.0625 24.0949 24.0625 29.5315C24.0625 34.968 28.9594 39.3752 35 39.3752Z" stroke="white" stroke-width="3.16667" stroke-linecap="round" stroke-linejoin="round"/>
<path d="M17.4456 49.071C19.0914 46.1534 21.6028 43.7029 24.7013 41.9912C27.7999 40.2795 31.3646 39.3734 35.0002 39.3734C38.6359 39.3734 42.2006 40.2795 45.2991 41.9912C48.3977 43.7029 50.9091 46.1534 52.5549 49.071" stroke="white" stroke-width="3.16667" stroke-linecap="round" stroke-linejoin="round"/>
</svg>
