<svg width="156" height="14" viewBox="0 0 156 14" fill="none" xmlns="http://www.w3.org/2000/svg">
<path d="M5.84 7.54L2.08 1.5C1.2 0.099999 0.4 -9.53674e-07 0.4 -9.53674e-07H3.1C3.1 -9.53674e-07 2.44 0.12 3.28 1.5L6.64 6.9L10.38 1.5C11.32 0.12 10.66 -9.53674e-07 10.66 -9.53674e-07H12.72C12.72 -9.53674e-07 11.9 0.099999 10.94 1.5L7.04 7.14V12.5C7.06 13.9 7.8 14 7.8 14H5.1C5.1 14 5.84 13.88 5.84 12.5V7.54ZM14.725 -9.53674e-07H17.425C17.425 -9.53674e-07 16.685 0.099999 16.685 1.5V12.5C16.685 13.9 17.425 14 17.425 14H14.725C14.725 14 15.465 13.88 15.465 12.5V1.5C15.465 0.12 14.725 -9.53674e-07 14.725 -9.53674e-07ZM22.4011 -9.53674e-07C22.4011 -9.53674e-07 21.7211 0.099999 22.4811 1.5L28.2011 11.84V1.5C28.2011 0.12 27.4411 -9.53674e-07 27.4411 -9.53674e-07H29.5211C29.5211 -9.53674e-07 28.7611 0.099999 28.7611 1.5V14H28.1811L21.2811 1.5C21.1211 1.22 20.9611 0.98 20.8211 0.799999C20.7611 0.98 20.7411 1.22 20.7411 1.5V12.5C20.7411 13.9 21.4811 14 21.4811 14H19.4211C19.4211 14 20.1611 13.88 20.1611 12.5V1.5C20.1611 0.12 19.4211 -9.53674e-07 19.4211 -9.53674e-07H22.4011ZM33.4795 9.86V12.5C33.4795 13.9 34.2195 14 34.2195 14H31.5195C31.5195 14 32.2595 13.88 32.2595 12.5V1.5C32.2595 0.12 31.5195 -9.53674e-07 31.5195 -9.53674e-07H34.2195C34.2195 -9.53674e-07 33.4795 0.099999 33.4795 1.5V9.16L39.5795 1.5C40.6795 0.12 40.0195 -9.53674e-07 40.0195 -9.53674e-07H42.0795C42.0795 -9.53674e-07 41.2595 0.099999 40.1395 1.5L36.0995 6.58L40.1995 12.5C41.1195 13.88 41.9395 14 41.9395 14H39.2395C39.2395 14 39.9195 13.9 38.9795 12.5L35.4395 7.4L33.4795 9.86ZM54.0867 8.92V1.5C54.0867 0.12 53.3467 -9.53674e-07 53.3467 -9.53674e-07H55.4067C55.4067 -9.53674e-07 54.6667 0.099999 54.6467 1.5V9C54.6467 12.76 53.1867 13.96 49.9667 13.96C46.8667 13.96 44.8267 12.74 44.8267 8.98V1.5C44.8267 0.12 44.0867 -9.53674e-07 44.0867 -9.53674e-07H46.8267C46.8267 -9.53674e-07 46.0867 0.099999 46.0867 1.5V8.98C46.0867 12.46 47.9067 13.38 49.9667 13.38C52.6867 13.38 54.0867 12.44 54.0867 8.92ZM67.9556 10.08C68.0956 6.42 58.0756 7.72 58.2556 3.46C58.3356 1.28 60.6356 -9.53674e-07 63.4356 -9.53674e-07C66.2356 -9.53674e-07 68.2556 1.34 68.2556 1.34L67.1356 2.64C67.1356 2.64 66.4756 0.479999 63.4156 0.479999C60.8556 0.479999 59.4156 1.58 59.3356 3.32C59.1956 6.74 69.5756 5.6 69.3956 10.06C69.3156 11.76 68.0956 14 63.2356 14C58.8556 14 57.4156 10.56 57.4156 10.56L58.9156 9.46C58.9156 9.46 59.8556 13.4 63.2756 13.4C66.6756 13.4 67.8956 11.42 67.9556 10.08ZM79.7639 9.86V12.5C79.7639 13.9 80.5039 14 80.5039 14H77.8039C77.8039 14 78.5439 13.88 78.5439 12.5V1.5C78.5439 0.12 77.8039 -9.53674e-07 77.8039 -9.53674e-07H80.5039C80.5039 -9.53674e-07 79.7639 0.099999 79.7639 1.5V9.16L85.8639 1.5C86.9639 0.12 86.3039 -9.53674e-07 86.3039 -9.53674e-07H88.3639C88.3639 -9.53674e-07 87.5439 0.099999 86.4239 1.5L82.3839 6.58L86.4839 12.5C87.4039 13.88 88.2239 14 88.2239 14H85.5239C85.5239 14 86.2039 13.9 85.2639 12.5L81.7239 7.4L79.7639 9.86ZM90.3711 -9.53674e-07H93.0711C93.0711 -9.53674e-07 92.3311 0.099999 92.3311 1.5V12.5C92.3311 13.9 93.0711 14 93.0711 14H90.3711C90.3711 14 91.1111 13.88 91.1111 12.5V1.5C91.1111 0.12 90.3711 -9.53674e-07 90.3711 -9.53674e-07ZM95.0672 -9.53674e-07H105.687V2.28C105.687 2.28 105.167 0.619999 102.267 0.619999H101.107C101.027 0.819999 100.967 1.12 100.967 1.5V12.5C100.967 13.9 101.707 14 101.707 14H99.0072C99.0072 14 99.7472 13.88 99.7472 12.5V1.5C99.7472 1.12 99.7072 0.819999 99.6072 0.619999H98.4672C95.5672 0.619999 95.0672 2.28 95.0672 2.28V-9.53674e-07ZM118.397 10.6C118.297 11.78 116.497 13.96 113.597 13.96C109.797 13.96 106.697 10.84 106.697 6.98C106.697 3.12 109.797 -9.53674e-07 113.597 -9.53674e-07C116.577 -9.53674e-07 118.017 1.66 118.757 1.98L117.217 3.34C117.477 1.88 115.977 0.6 113.517 0.6C110.457 0.6 107.957 3.44 107.957 6.96C107.957 10.46 110.457 13.32 113.517 13.32C116.577 13.32 118.117 11.12 118.397 10.6ZM122.708 8.68V12.5C122.708 13.9 123.448 14 123.448 14H120.748C120.748 14 121.488 13.88 121.488 12.5V1.5C121.488 0.12 120.748 -9.53674e-07 120.748 -9.53674e-07H123.448C123.448 -9.53674e-07 122.708 0.099999 122.708 1.5V8.34H129.968V1.5C129.968 0.12 129.228 -9.53674e-07 129.228 -9.53674e-07H131.928C131.928 -9.53674e-07 131.188 0.099999 131.188 1.5V12.5C131.188 13.9 131.928 14 131.928 14H129.228C129.228 14 129.968 13.88 129.968 12.5V8.68H122.708ZM140.301 7.06C140.301 7.06 139.941 5.74 136.901 5.74L135.881 5.76V12.5C135.881 12.9 135.921 13.4 136.501 13.4C136.501 13.4 137.221 13.38 139.741 13.38C143.321 13.38 143.761 12.08 143.761 12.08V14H133.921C133.921 14 134.661 13.88 134.661 12.5V1.5C134.661 0.12 133.921 -9.53674e-07 133.921 -9.53674e-07H143.761V1.94C143.761 1.94 143.321 0.619999 139.741 0.619999C137.221 0.619999 136.501 0.619999 136.501 0.619999C135.861 0.619999 135.881 1.12 135.881 1.5V5.44H136.901C139.941 5.44 140.301 4.12 140.301 4.12V7.06ZM148.746 -9.53674e-07C148.746 -9.53674e-07 148.066 0.099999 148.826 1.5L154.546 11.84V1.5C154.546 0.12 153.786 -9.53674e-07 153.786 -9.53674e-07H155.866C155.866 -9.53674e-07 155.106 0.099999 155.106 1.5V14H154.526L147.626 1.5C147.466 1.22 147.306 0.98 147.166 0.799999C147.106 0.98 147.086 1.22 147.086 1.5V12.5C147.086 13.9 147.826 14 147.826 14H145.766C145.766 14 146.506 13.88 146.506 12.5V1.5C146.506 0.12 145.766 -9.53674e-07 145.766 -9.53674e-07H148.746Z" fill="white"/>
</svg>
